<?xml version="1.0" encoding="UTF-8" standalone="no"?>
<svg
   xmlns:dc="http://purl.org/dc/elements/1.1/"
   xmlns:cc="http://creativecommons.org/ns#"
   xmlns:rdf="http://www.w3.org/1999/02/22-rdf-syntax-ns#"
   xmlns:svg="http://www.w3.org/2000/svg"
   xmlns="http://www.w3.org/2000/svg"
   xmlns:sodipodi="http://sodipodi.sourceforge.net/DTD/sodipodi-0.dtd"
   xmlns:inkscape="http://www.inkscape.org/namespaces/inkscape"
   width="32px"
   height="32px"
   id="svg3202"
   version="1.1"
   inkscape:version="0.48.5 r10040"
   sodipodi:docname="prueba2.svg">
  <g
     transform="translate(-0.09334482,0.01519931)"
     id="g3">
    <circle
       d="m 0.34099999,0.266 c 0,0.0331371 -0.0268629,0.06 -0.06,0.06 -0.0331371,0 -0.06,-0.0268629 -0.06,-0.06 0,-0.0331371 0.0268629,-0.06 0.06,-0.06 0.0331371,0 0.06,0.0268629 0.06,0.06 z"
       style="fill:#4f77b4"
       sodipodi:ry="0.059999999"
       sodipodi:rx="0.059999999"
       sodipodi:cy="0.266"
       sodipodi:cx="0.28099999"
       cx="0.28099999"
       cy="0.266"
       r="0.059999999"
       id="circle5" />
    <path
       style="fill:#ffffff"
       inkscape:connector-curvature="0"
       d="M 0.248,0.252 C 0.245,0.256 0.242,0.259 0.241,0.264 0.24,0.267 0.24,0.27 0.24,0.273 c 0,0.005 0.003,0.007 0.006,0.008 0.005,0.002 0.009,0.002 0.014,0 C 0.261,0.28 0.263,0.279 0.265,0.278 0.266,0.278 0.269,0.277 0.266,0.275 0.266,0.269 0.263,0.263 0.264,0.256 0.265,0.251 0.266,0.246 0.269,0.242 0.259,0.246 0.249,0.245 0.24,0.25 0.241,0.246 0.244,0.244 0.246,0.242 0.25,0.238 0.255,0.235 0.26,0.233 c 0.006,-0.002 0.011,-0.001 0.017,0 0.001,0 0.001,0.001 0.002,0 C 0.286,0.232 0.293,0.232 0.3,0.235 0.31,0.239 0.318,0.245 0.324,0.255 0.33,0.265 0.33,0.276 0.325,0.287 0.319,0.297 0.311,0.3 0.301,0.299 0.29,0.298 0.281,0.293 0.274,0.285 0.273,0.284 0.272,0.283 0.27,0.284 0.262,0.288 0.254,0.29 0.246,0.286 0.237,0.281 0.233,0.271 0.235,0.261 0.235,0.26 0.236,0.259 0.236,0.26 c 0.001,0.003 0.002,0 0.002,0 C 0.24,0.256 0.243,0.254 0.246,0.253 0.246,0.252 0.247,0.252 0.248,0.252 l 0,0 z M 0.281,0.276 C 0.278,0.275 0.277,0.271 0.274,0.27 0.274,0.282 0.296,0.297 0.308,0.289 0.304,0.289 0.299,0.288 0.295,0.286 0.292,0.284 0.288,0.283 0.285,0.28 c 0.001,-0.001 0.001,0 0.002,0 0.005,0.003 0.01,0.006 0.015,0.006 0.003,0.001 0.006,0.001 0.01,0 0.001,0 0.002,0 0.003,-0.001 0.002,0 0.004,-0.002 0.005,-0.003 C 0.322,0.281 0.322,0.28 0.322,0.278 0.322,0.274 0.32,0.269 0.318,0.266 0.313,0.258 0.307,0.252 0.3,0.248 0.296,0.246 0.292,0.245 0.288,0.244 c 0,0.001 0,0.002 0,0.002 C 0.29,0.253 0.29,0.26 0.286,0.266 0.285,0.271 0.283,0.273 0.281,0.276 z M 0.284,0.249 C 0.284,0.246 0.283,0.245 0.281,0.245 0.278,0.244 0.277,0.245 0.275,0.246 0.27,0.249 0.269,0.249 0.271,0.255 0.271,0.258 0.272,0.26 0.274,0.263 0.276,0.267 0.276,0.266 0.279,0.264 0.282,0.261 0.283,0.257 0.285,0.253 0.284,0.252 0.284,0.25 0.284,0.249 z M 0.268,0.25 C 0.269,0.248 0.27,0.246 0.271,0.244 0.272,0.242 0.271,0.241 0.27,0.24 0.266,0.238 0.262,0.238 0.258,0.239 0.255,0.24 0.252,0.239 0.249,0.243 0.252,0.242 0.254,0.242 0.256,0.241 0.26,0.24 0.264,0.239 0.267,0.24 0.27,0.241 0.271,0.242 0.269,0.244 0.268,0.246 0.268,0.247 0.268,0.25 z"
       id="path9" />
    <path
       style="fill:#ffffff"
       inkscape:connector-curvature="0"
       d="M 0.263,0.276 C 0.261,0.278 0.258,0.278 0.255,0.279 0.251,0.28 0.247,0.279 0.244,0.278 0.243,0.278 0.243,0.277 0.243,0.277 c 0,-0.001 0.001,-0.001 0.001,0 0.006,0.003 0.011,0.001 0.017,0 C 0.262,0.275 0.262,0.275 0.263,0.276 z"
       id="path11" />
    <rect
       style="fill:#ffffff"
       x="0.248"
       y="0.252"
       width="0"
       height="0"
       id="rect13" />
    <path
       style="fill:#ffffff"
       inkscape:connector-curvature="0"
       d="M 0.285,0.28 C 0.283,0.28 0.282,0.279 0.281,0.277 0.283,0.276 0.285,0.277 0.285,0.28 z"
       id="path15" />
  </g>
</svg>
